<?xml version="1.0" encoding="UTF-8" standalone="no"?>
<svg
   xmlns:dc="http://purl.org/dc/elements/1.1/"
   xmlns:cc="http://creativecommons.org/ns#"
   xmlns:rdf="http://www.w3.org/1999/02/22-rdf-syntax-ns#"
   xmlns:svg="http://www.w3.org/2000/svg"
   xmlns="http://www.w3.org/2000/svg"
   xmlns:sodipodi="http://sodipodi.sourceforge.net/DTD/sodipodi-0.dtd"
   xmlns:inkscape="http://www.inkscape.org/namespaces/inkscape"
   inkscape:export-ydpi="96"
   inkscape:export-xdpi="96"
   inkscape:export-filename="D:\GSV\GSV_Logo\GSV_Banner.pdf.png"
   inkscape:version="1.0 (4035a4fb49, 2020-05-01)"
   sodipodi:docname="GSV_Banner_White.svg"
   id="svg8"
   version="1.1"
   viewBox="0 0 952.50001 317.49999"
   height="1200"
   width="3600">
  <defs
     id="defs2" />
  <sodipodi:namedview
     inkscape:pagecheckerboard="true"
     inkscape:document-rotation="0"
     inkscape:snap-text-baseline="true"
     inkscape:snap-intersection-paths="true"
     inkscape:object-paths="true"
     inkscape:snap-smooth-nodes="true"
     inkscape:snap-midpoints="true"
     inkscape:snap-object-midpoints="true"
     inkscape:lockguides="false"
     inkscape:guide-bbox="true"
     showguides="true"
     inkscape:window-maximized="1"
     inkscape:window-y="-8"
     inkscape:window-x="-8"
     inkscape:window-height="1377"
     inkscape:window-width="2560"
     units="px"
     inkscape:snap-page="true"
     showgrid="true"
     inkscape:current-layer="layer1"
     inkscape:document-units="px"
     inkscape:cy="827.88991"
     inkscape:cx="1656.669"
     inkscape:zoom="0.61881418"
     inkscape:pageshadow="2"
     inkscape:pageopacity="0.50196078"
     borderopacity="1.0"
     bordercolor="#666666"
     pagecolor="#000000"
     id="base">
    <inkscape:grid
       empspacing="15"
       id="grid812"
       type="xygrid" />
    <sodipodi:guide
       inkscape:locked="false"
       id="guide1493"
       orientation="1,0"
       position="476.25,666.74998" />
  </sodipodi:namedview>
  <metadata
     id="metadata5">
    <rdf:RDF>
      <cc:Work
         rdf:about="">
        <dc:format>image/svg+xml</dc:format>
        <dc:type
           rdf:resource="http://purl.org/dc/dcmitype/StillImage" />
        <dc:title></dc:title>
      </cc:Work>
    </rdf:RDF>
  </metadata>
  <g
     transform="translate(0,20.500021)"
     id="layer1"
     inkscape:groupmode="layer"
     inkscape:label="レイヤー 1">
    <g
       transform="translate(51.593746)"
       id="g1246">
      <g
         id="g893"
         transform="matrix(3,0,0,3,111.125,-657.49996)"
         style="stroke-width:0.33333334">
        <g
           id="g825"
           inkscape:export-xdpi="144"
           inkscape:export-ydpi="144"
           style="stroke-width:0.33333334">
          <path
             style="opacity:1;fill:#fafcfb;fill-opacity:1;stroke:none;stroke-width:0.08833333;stroke-miterlimit:4;stroke-dasharray:none;stroke-dashoffset:2.01987386;stroke-opacity:1"
             d="m 7.9999998e-7,233.49998 v 63.5 H 29.104167 34.395834 63.5 v -63.5 H 34.395834 29.104167 Z M 34.395834,236.2781 a 29.104166,29.104166 0 0 1 26.458333,28.97188 29.104166,29.104166 0 0 1 -26.458333,28.95999 v -14.65854 a 14.552083,14.552072 0 0 0 8.031551,-4.44882 25.135416,7.6067546 0 0 0 14.458032,-6.87607 25.135416,7.6067546 0 0 0 -10.980208,-6.27662 14.552083,14.552072 0 0 0 -11.509375,-10.99933 z m -5.291667,0.0119 v 14.65854 a 14.552083,14.552072 0 0 0 -11.504724,10.99209 25.135416,7.6067546 0 0 0 -10.984859,6.28592 25.135416,7.6067546 0 0 0 14.461649,6.87813 14.552083,14.552072 0 0 0 8.027934,4.44469 v 14.67249 A 29.104166,29.104166 0 0 1 2.6458341,265.24998 29.104166,29.104166 0 0 1 29.104167,236.28999 Z m 16.951936,26.37203 a 21.828125,5.6224056 0 0 1 7.522022,4.24161 21.828125,5.6224056 0 0 1 -8.654251,4.47724 14.552083,14.552072 0 0 0 1.37821,-6.13089 14.552083,14.552072 0 0 0 -0.245981,-2.58796 z m -28.619957,0.006 a 14.552083,14.552072 0 0 0 -0.238229,2.58227 14.552083,14.552072 0 0 0 1.376144,6.12727 21.828125,5.6224056 0 0 1 -8.6521853,-4.47362 21.828125,5.6224056 0 0 1 7.5142703,-4.23592 z"
             id="rect14348"
             inkscape:connector-curvature="0" />
        </g>
      </g>
      <g
         id="g1209"
         transform="translate(0,7.9374998)">
        <g
           transform="translate(3.9687555,-15.875003)"
           id="g1036">
          <path
             inkscape:connector-curvature="0"
             style="opacity:1;vector-effect:none;fill:#fafcfb;fill-opacity:1;fill-rule:evenodd;stroke:none;stroke-width:0.26458332px;stroke-linecap:butt;stroke-linejoin:miter;stroke-miterlimit:4;stroke-dasharray:none;stroke-dashoffset:0;stroke-opacity:1;paint-order:stroke markers fill"
             d="m 420.68749,201.74998 v 3.96875 23.8125 3.96875 h 15.875 v -3.96875 -11.90625 h -7.9375 v 3.96875 h 3.96875 v 7.9375 h -7.9375 v -23.8125 h 11.90625 v -3.96875 h -11.90625 z"
             id="rect1316" />
          <path
             inkscape:connector-curvature="0"
             style="opacity:1;vector-effect:none;fill:#fafcfb;fill-opacity:1;fill-rule:evenodd;stroke:none;stroke-width:0.26458332px;stroke-linecap:butt;stroke-linejoin:miter;stroke-miterlimit:4;stroke-dasharray:none;stroke-dashoffset:0;stroke-opacity:1;paint-order:stroke markers fill"
             d="m 440.53124,209.68748 v 3.96875 h 3.96875 v -3.96875 z m 0,7.9375 v 15.875 h 3.96875 v -15.875 z"
             id="rect1326" />
          <path
             inkscape:connector-curvature="0"
             style="opacity:1;vector-effect:none;fill:#fafcfb;fill-opacity:1;fill-rule:evenodd;stroke:none;stroke-width:0.26458332px;stroke-linecap:butt;stroke-linejoin:miter;stroke-miterlimit:4;stroke-dasharray:none;stroke-dashoffset:0;stroke-opacity:1;paint-order:stroke markers fill"
             d="m 448.46874,217.62498 v 15.875 h 15.875 v -15.875 z m 3.96875,3.96875 h 7.9375 v 7.9375 h -7.9375 z"
             id="rect1330" />
          <path
             inkscape:connector-curvature="0"
             style="opacity:1;vector-effect:none;fill:#fafcfb;fill-opacity:1;fill-rule:evenodd;stroke:none;stroke-width:0.26458332px;stroke-linecap:butt;stroke-linejoin:miter;stroke-miterlimit:4;stroke-dasharray:none;stroke-dashoffset:0;stroke-opacity:1;paint-order:stroke markers fill"
             d="m 468.31249,217.62498 v 3.96875 11.90625 h 3.96875 v -11.90625 h 7.9375 v 11.90625 h 3.96875 v -15.875 h -11.90625 z"
             id="rect1335" />
          <path
             inkscape:connector-curvature="0"
             style="opacity:1;vector-effect:none;fill:#fafcfb;fill-opacity:1;fill-rule:evenodd;stroke:none;stroke-width:0.26458332px;stroke-linecap:butt;stroke-linejoin:miter;stroke-miterlimit:4;stroke-dasharray:none;stroke-dashoffset:0;stroke-opacity:1;paint-order:stroke markers fill"
             d="m 488.15624,217.62498 v 2.80654 l 9.0997,9.09971 h -9.0997 v 3.96875 h 13.49375 2.38125 v -2.80655 l -9.09971,-9.0997 h 9.09971 v -3.96875 h -13.06846 -0.95446 z"
             id="rect1341" />
          <path
             inkscape:connector-curvature="0"
             style="opacity:1;vector-effect:none;fill:#fafcfb;fill-opacity:1;fill-rule:evenodd;stroke:none;stroke-width:0.26458332px;stroke-linecap:butt;stroke-linejoin:miter;stroke-miterlimit:4;stroke-dasharray:none;stroke-dashoffset:0;stroke-opacity:1;paint-order:stroke markers fill"
             d="m 507.99999,217.62498 v 3.96875 h 3.96875 v -3.96875 z m 0,11.90625 v 3.96875 h 3.96875 v -3.96875 z"
             id="rect1345" />
          <path
             inkscape:connector-curvature="0"
             style="opacity:1;vector-effect:none;fill:#fafcfb;fill-opacity:1;fill-rule:evenodd;stroke:none;stroke-width:0.26458332px;stroke-linecap:butt;stroke-linejoin:miter;stroke-miterlimit:4;stroke-dasharray:none;stroke-dashoffset:0;stroke-opacity:1;paint-order:stroke markers fill"
             d="m 515.93749,217.62498 v 3.96875 h 9.0997 l -9.0997,9.0997 v 2.80655 h 2.80654 13.06846 v -3.96875 -7.9375 -1.16221 -2.80654 h -3.96875 z m 11.90625,6.77529 v 5.13096 h -5.13096 z"
             id="rect1356" />
          <path
             inkscape:connector-curvature="0"
             style="opacity:1;vector-effect:none;fill:#fafcfb;fill-opacity:1;fill-rule:evenodd;stroke:none;stroke-width:0.26458332px;stroke-linecap:butt;stroke-linejoin:miter;stroke-miterlimit:4;stroke-dasharray:none;stroke-dashoffset:0;stroke-opacity:1;paint-order:stroke markers fill"
             d="m 535.78124,217.62498 v 3.96875 11.90625 h 3.96875 v -11.90625 h 7.9375 v 11.90625 h 3.96875 v -15.875 h -11.90625 z"
             id="rect1366" />
          <path
             inkscape:connector-curvature="0"
             style="opacity:1;vector-effect:none;fill:#fafcfb;fill-opacity:1;fill-rule:evenodd;stroke:none;stroke-width:0.26458332px;stroke-linecap:butt;stroke-linejoin:miter;stroke-miterlimit:4;stroke-dasharray:none;stroke-dashoffset:0;stroke-opacity:1;paint-order:stroke markers fill"
             d="m 555.62499,201.74998 v 7.9375 3.96875 15.875 3.96875 h 3.96874 3.96875 v -3.96875 h -3.96875 v -15.875 h 3.96875 v -3.96875 h -3.96875 v -7.9375 z"
             id="rect1372" />
          <path
             inkscape:connector-curvature="0"
             style="opacity:1;vector-effect:none;fill:#fafcfb;fill-opacity:1;fill-rule:evenodd;stroke:none;stroke-width:0.26458332px;stroke-linecap:butt;stroke-linejoin:miter;stroke-miterlimit:4;stroke-dasharray:none;stroke-dashoffset:0;stroke-opacity:1;paint-order:stroke markers fill"
             d="m 567.53123,217.62498 v 13.06845 0.95446 1.85209 h 2.80655 l 13.06845,-13.06846 v -2.80654 h -2.80654 l -9.09971,9.0997 v -9.0997 z"
             id="path1389" />
          <path
             inkscape:connector-curvature="0"
             style="opacity:1;vector-effect:none;fill:#fafcfb;fill-opacity:1;fill-rule:evenodd;stroke:none;stroke-width:0.26458332px;stroke-linecap:butt;stroke-linejoin:miter;stroke-miterlimit:4;stroke-dasharray:none;stroke-dashoffset:0;stroke-opacity:1;paint-order:stroke markers fill"
             d="m 587.37498,217.62498 v 3.96875 9.0997 2.80655 h 2.80655 1.1622 11.90625 v -3.96875 h -9.0997 l 9.0997,-9.09971 v -2.80654 h -1.5875 -1.21904 -9.09971 z m 3.96875,3.96875 h 5.13096 l -5.13096,5.13095 z"
             id="path1393" />
          <path
             inkscape:connector-curvature="0"
             style="opacity:1;vector-effect:none;fill:#fafcfb;fill-opacity:1;fill-rule:evenodd;stroke:none;stroke-width:0.26458332px;stroke-linecap:butt;stroke-linejoin:miter;stroke-miterlimit:4;stroke-dasharray:none;stroke-dashoffset:0;stroke-opacity:1;paint-order:stroke markers fill"
             d="m 607.21873,217.62498 v 3.96875 9.0997 2.80655 h 2.80655 1.1622 11.90625 v -3.96875 h -9.0997 l 9.0997,-9.09971 v -2.80654 h -1.5875 -1.21904 -9.09971 z m 3.96875,3.96875 h 5.13096 l -5.13096,5.13095 z"
             id="path1401" />
          <path
             inkscape:connector-curvature="0"
             style="opacity:1;vector-effect:none;fill:#fafcfb;fill-opacity:1;fill-rule:evenodd;stroke:none;stroke-width:0.26458332px;stroke-linecap:butt;stroke-linejoin:miter;stroke-miterlimit:4;stroke-dasharray:none;stroke-dashoffset:0;stroke-opacity:1;paint-order:stroke markers fill"
             d="m 638.96873,201.74998 v 15.875 h -11.90625 v 15.875 h 11.90625 3.96875 v -15.875 -15.875 z m -7.9375,19.84375 h 7.9375 v 7.9375 h -7.9375 z"
             id="rect1409" />
        </g>
        <g
           transform="translate(0,-2.6666667e-6)"
           id="g1053">
          <path
             inkscape:connector-curvature="0"
             style="opacity:1;vector-effect:none;fill:#fafcfb;fill-opacity:1;fill-rule:evenodd;stroke:none;stroke-width:0.26458332px;stroke-linecap:butt;stroke-linejoin:miter;stroke-miterlimit:4;stroke-dasharray:none;stroke-dashoffset:0;stroke-opacity:1;paint-order:stroke markers fill"
             d="m 357.1875,42.99998 v 119.0625 H 333.375 v 7.9375 h 23.8125 3.96875 3.96875 V 82.687479 H 381 v -7.9375 H 365.125 V 42.99998 Z"
             id="rect1025" />
          <path
             inkscape:connector-curvature="0"
             style="opacity:1;vector-effect:none;fill:#fafcfb;fill-opacity:1;fill-rule:evenodd;stroke:none;stroke-width:0.26458332px;stroke-linecap:butt;stroke-linejoin:miter;stroke-miterlimit:4;stroke-dasharray:none;stroke-dashoffset:0;stroke-opacity:1;paint-order:stroke markers fill"
             d="m 384.96875,74.749979 v 31.750001 h 3.96875 3.96875 15.875 v 31.75 h 7.9375 V 74.749979 h -7.9375 v 23.8125 h -15.875 v -23.8125 z"
             id="rect1039" />
          <path
             inkscape:connector-curvature="0"
             style="opacity:1;vector-effect:none;fill:#fafcfb;fill-opacity:1;fill-rule:evenodd;stroke:none;stroke-width:0.26458332px;stroke-linecap:butt;stroke-linejoin:miter;stroke-miterlimit:4;stroke-dasharray:none;stroke-dashoffset:0;stroke-opacity:1;paint-order:stroke markers fill"
             d="m 420.6875,74.749979 v 31.750001 h 3.96875 3.96875 15.875 v 31.75 h 7.9375 V 74.749979 h -3.96875 -19.84375 -3.96875 z m 7.9375,7.9375 H 444.5 v 15.875 h -15.875 z"
             id="rect1045" />
          <path
             inkscape:connector-curvature="0"
             style="opacity:1;vector-effect:none;fill:#fafcfb;fill-opacity:1;fill-rule:evenodd;stroke:none;stroke-width:0.26458332px;stroke-linecap:butt;stroke-linejoin:miter;stroke-miterlimit:4;stroke-dasharray:none;stroke-dashoffset:0;stroke-opacity:1;paint-order:stroke markers fill"
             d="m 492.125,74.749979 v 63.500001 h 7.9375 l 15.875,-21.16667 v 21.16667 h 7.9375 V 74.749979 h -3.96875 -19.84375 -3.96875 z m 7.9375,7.9375 h 15.875 v 23.812501 l -15.875,21.16667 z"
             id="rect1072" />
          <path
             inkscape:connector-curvature="0"
             style="opacity:1;vector-effect:none;fill:#fafcfb;fill-opacity:1;fill-rule:evenodd;stroke:none;stroke-width:0.26458332px;stroke-linecap:butt;stroke-linejoin:miter;stroke-miterlimit:4;stroke-dasharray:none;stroke-dashoffset:0;stroke-opacity:1;paint-order:stroke markers fill"
             d="m 527.84374,74.749979 v 63.500001 h 7.9375 l 15.875,-42.333334 v 42.333334 h 7.9375 V 74.749979 h -7.9375 l -15.875,42.333331 V 74.749979 Z"
             id="rect1093" />
          <path
             inkscape:connector-curvature="0"
             style="opacity:1;vector-effect:none;fill:#fafcfb;fill-opacity:1;fill-rule:evenodd;stroke:none;stroke-width:0.26458332px;stroke-linecap:butt;stroke-linejoin:miter;stroke-miterlimit:4;stroke-dasharray:none;stroke-dashoffset:0;stroke-opacity:1;paint-order:stroke markers fill"
             d="m 599.28123,74.749979 v 7.9375 h 23.8125 v 15.875 h -23.8125 v 7.937501 h 23.8125 v 31.75 h 7.9375 V 74.749979 h -3.96875 -3.96875 z"
             id="rect1120" />
          <path
             inkscape:connector-curvature="0"
             style="opacity:1;vector-effect:none;fill:#fafcfb;fill-opacity:1;fill-rule:evenodd;stroke:none;stroke-width:0.26458332px;stroke-linecap:butt;stroke-linejoin:miter;stroke-miterlimit:4;stroke-dasharray:none;stroke-dashoffset:0;stroke-opacity:1;paint-order:stroke markers fill"
             d="m 634.99998,74.749979 v 23.8125 7.937501 31.75 h 7.9375 v -31.75 h 23.8125 v -7.937501 h -23.8125 v -15.875 h 23.8125 v -7.9375 h -23.8125 -3.96875 z"
             id="rect1143" />
          <path
             inkscape:connector-curvature="0"
             style="opacity:1;vector-effect:none;fill:#fafcfb;fill-opacity:1;fill-rule:evenodd;stroke:none;stroke-width:0.26458332px;stroke-linecap:butt;stroke-linejoin:miter;stroke-miterlimit:4;stroke-dasharray:none;stroke-dashoffset:0;stroke-opacity:1;paint-order:stroke markers fill"
             d="m 670.71873,74.749979 v 63.500001 h 7.9375 l 23.8125,-31.75 V 74.749979 h -7.9375 v 31.750001 l -15.875,21.16667 V 74.749979 Z"
             id="rect1151" />
          <path
             inkscape:connector-curvature="0"
             style="opacity:1;vector-effect:none;fill:#fafcfb;fill-opacity:1;fill-rule:evenodd;stroke:none;stroke-width:0.26458332px;stroke-linecap:butt;stroke-linejoin:miter;stroke-miterlimit:4;stroke-dasharray:none;stroke-dashoffset:0;stroke-opacity:1;paint-order:stroke markers fill"
             d="m 706.43749,74.749979 v 63.500001 h 7.9375 V 85.333313 l 15.875,21.166667 v 31.75 h 7.9375 v -31.75 l -23.8125,-31.750001 z"
             id="rect1183" />
          <path
             inkscape:connector-curvature="0"
             style="opacity:1;vector-effect:none;fill:#fafcfb;fill-opacity:1;fill-rule:evenodd;stroke:none;stroke-width:0.26458332px;stroke-linecap:butt;stroke-linejoin:miter;stroke-miterlimit:4;stroke-dasharray:none;stroke-dashoffset:0;stroke-opacity:1;paint-order:stroke markers fill"
             d="m 587.37499,42.99998 -23.8125,31.749999 v 63.500001 h 7.9375 v -31.75 h 15.875 v 63.5 h 7.93749 v -127 z m 0,10.583333 v 44.979166 h -15.875 v -23.8125 z"
             id="rect1261" />
          <path
             id="path1275"
             d="m 480.21875,42.99998 -23.8125,31.75 v 63.5 h 7.9375 v -31.75 h 15.875 v 63.5 h 7.9375 v -127 z m 0,10.58333 v 44.97917 h -15.875 v -23.8125 z"
             style="opacity:1;vector-effect:none;fill:#fafcfb;fill-opacity:1;fill-rule:evenodd;stroke:none;stroke-width:0.26458332px;stroke-linecap:butt;stroke-linejoin:miter;stroke-miterlimit:4;stroke-dasharray:none;stroke-dashoffset:0;stroke-opacity:1;paint-order:stroke markers fill"
             inkscape:connector-curvature="0" />
          <rect
             style="opacity:1;vector-effect:none;fill:#fafcfb;fill-opacity:1;fill-rule:evenodd;stroke:none;stroke-width:0.26458332px;stroke-linecap:butt;stroke-linejoin:miter;stroke-miterlimit:4;stroke-dasharray:none;stroke-dashoffset:0;stroke-opacity:1;paint-order:stroke markers fill"
             id="rect1001"
             width="7.9375"
             height="7.9375"
             x="496.09375"
             y="58.874977" />
          <rect
             style="opacity:1;vector-effect:none;fill:#fafcfb;fill-opacity:1;fill-rule:evenodd;stroke:none;stroke-width:0.26458332px;stroke-linecap:butt;stroke-linejoin:miter;stroke-miterlimit:4;stroke-dasharray:none;stroke-dashoffset:0;stroke-opacity:1;paint-order:stroke markers fill"
             id="rect1003"
             width="7.9375"
             height="7.9375"
             x="511.96875"
             y="58.874977" />
          <path
             style="opacity:1;vector-effect:none;fill:#fafcfb;fill-opacity:1;stroke:none;stroke-width:0.26458332px;stroke-linecap:butt;stroke-linejoin:miter;stroke-miterlimit:4;stroke-dasharray:none;stroke-dashoffset:0;stroke-opacity:1;paint-order:stroke markers fill"
             d="m 674.68749,58.874978 h 7.9375 l 7.9375,7.9375 h -7.9375 z"
             id="path1005"
             inkscape:connector-curvature="0"
             sodipodi:nodetypes="ccccc" />
          <path
             sodipodi:nodetypes="ccccc"
             inkscape:connector-curvature="0"
             id="path1021"
             d="m 698.49999,58.874978 h -7.9375 l -7.9375,7.9375 h 7.9375 z"
             style="opacity:1;vector-effect:none;fill:#fafcfb;fill-opacity:1;stroke:none;stroke-width:0.26458332px;stroke-linecap:butt;stroke-linejoin:miter;stroke-miterlimit:4;stroke-dasharray:none;stroke-dashoffset:0;stroke-opacity:1;paint-order:stroke markers fill" />
        </g>
      </g>
    </g>
  </g>
</svg>
