<?xml version="1.0" encoding="UTF-8" standalone="no"?>
<svg
   xmlns:dc="http://purl.org/dc/elements/1.1/"
   xmlns:cc="http://creativecommons.org/ns#"
   xmlns:rdf="http://www.w3.org/1999/02/22-rdf-syntax-ns#"
   xmlns:svg="http://www.w3.org/2000/svg"
   xmlns="http://www.w3.org/2000/svg"
   xmlns:sodipodi="http://sodipodi.sourceforge.net/DTD/sodipodi-0.dtd"
   xmlns:inkscape="http://www.inkscape.org/namespaces/inkscape"
   inkscape:export-ydpi="6.8266668"
   inkscape:export-xdpi="6.8266668"
   inkscape:export-filename="C:\Users\Astro_Sola\Documents\GitHub\Astro-Sola.github.io\GSVSC\img\StellarSystem.png"
   width="1800"
   height="1800"
   viewBox="0 0 476.24999 476.25001"
   version="1.1"
   id="svg8"
   sodipodi:docname="StellarSystem.svg"
   inkscape:version="1.0 (4035a4fb49, 2020-05-01)">
  <defs
     id="defs2" />
  <sodipodi:namedview
     id="base"
     pagecolor="#000000"
     bordercolor="#666666"
     borderopacity="1.0"
     inkscape:pageopacity="0"
     inkscape:pageshadow="2"
     inkscape:zoom="0.22677583"
     inkscape:cx="1133.7532"
     inkscape:cy="1566.0703"
     inkscape:document-units="px"
     inkscape:current-layer="layer1"
     inkscape:document-rotation="0"
     showgrid="true"
     units="px"
     inkscape:window-width="2560"
     inkscape:window-height="1377"
     inkscape:window-x="-8"
     inkscape:window-y="-8"
     inkscape:window-maximized="1"
     inkscape:pagecheckerboard="true">
    <inkscape:grid
       type="xygrid"
       id="grid833"
       empspacing="100" />
  </sodipodi:namedview>
  <metadata
     id="metadata5">
    <rdf:RDF>
      <cc:Work
         rdf:about="">
        <dc:format>image/svg+xml</dc:format>
        <dc:type
           rdf:resource="http://purl.org/dc/dcmitype/StillImage" />
        <dc:title></dc:title>
        <dc:creator>
          <cc:Agent>
            <dc:title>Astro_Sola</dc:title>
          </cc:Agent>
        </dc:creator>
        <dc:publisher>
          <cc:Agent>
            <dc:title>Astro_Sola</dc:title>
          </cc:Agent>
        </dc:publisher>
        <dc:rights>
          <cc:Agent>
            <dc:title>Astro_Sola, Gions:antveed</dc:title>
          </cc:Agent>
        </dc:rights>
        <dc:language>japanese</dc:language>
      </cc:Work>
    </rdf:RDF>
  </metadata>
  <g
     inkscape:label="レイヤー 1"
     inkscape:groupmode="layer"
     id="layer1">
    <path
       id="path831"
       style="opacity:1;fill:#ffffff;stroke-width:0.999999px;paint-order:markers stroke fill;stop-color:#000000"
       d="M 898.99023 0 A 899.99999 899.99999 0 0 0 0 900 A 899.99999 899.99999 0 0 0 900 1800 A 899.99999 899.99999 0 0 0 1800 900 A 899.99999 899.99999 0 0 0 900 0 A 899.99999 899.99999 0 0 0 898.99023 0 z M 899.16602 100 A 799.99996 799.99996 0 0 1 900 100 A 799.99996 799.99996 0 0 1 1700 900 A 799.99996 799.99996 0 0 1 900 1700 A 799.99996 799.99996 0 0 1 100 900 A 799.99996 799.99996 0 0 1 899.16602 100 z M 900 300 A 600 600 0 0 0 300 900 A 600 600 0 0 0 900 1500 A 600 600 0 0 0 1500 900 A 600 600 0 0 0 900 300 z "
       transform="scale(0.26458333)" />
  </g>
</svg>
